<?xml version="1.0" encoding="UTF-8" standalone="no"?>
<!-- Created with Inkscape (http://www.inkscape.org/) -->

<svg
   xmlns:dc="http://purl.org/dc/elements/1.1/"
   xmlns:cc="http://creativecommons.org/ns#"
   xmlns:rdf="http://www.w3.org/1999/02/22-rdf-syntax-ns#"
   xmlns:svg="http://www.w3.org/2000/svg"
   xmlns="http://www.w3.org/2000/svg"
   xmlns:sodipodi="http://sodipodi.sourceforge.net/DTD/sodipodi-0.dtd"
   xmlns:inkscape="http://www.inkscape.org/namespaces/inkscape"
   width="144.40866mm"
   height="144.7529mm"
   viewBox="0 0 511.68423 512.90397"
   id="svg2"
   version="1.1"
   inkscape:version="0.91 r13725"
   inkscape:export-filename="/home/goodhope/Pictures/gesos.png"
   inkscape:export-xdpi="90"
   inkscape:export-ydpi="90"
   sodipodi:docname="gesos_logo.svg">
  <defs
     id="defs4" />
  <sodipodi:namedview
     id="base"
     pagecolor="#ffffff"
     bordercolor="#666666"
     borderopacity="1.0"
     inkscape:pageopacity="0.0"
     inkscape:pageshadow="2"
     inkscape:zoom="0.35"
     inkscape:cx="-246.21094"
     inkscape:cy="368.90315"
     inkscape:document-units="px"
     inkscape:current-layer="layer1"
     showgrid="false"
     showguides="true"
     inkscape:guide-bbox="true"
     objecttolerance="10000"
     inkscape:snap-path-clip="true"
     inkscape:snap-path-mask="true"
     inkscape:snap-perpendicular="true"
     inkscape:snap-tangential="true"
     gridtolerance="10"
     fit-margin-top="0"
     fit-margin-left="0"
     fit-margin-right="0"
     fit-margin-bottom="0"
     inkscape:window-width="1280"
     inkscape:window-height="746"
     inkscape:window-x="0"
     inkscape:window-y="0"
     inkscape:window-maximized="1">
    <sodipodi:guide
       position="-654.08348,152.38217"
       orientation="1,0"
       id="guide4138" />
  </sodipodi:namedview>
  <metadata
     id="metadata7">
    <rdf:RDF>
      <cc:Work
         rdf:about="">
        <dc:format>image/svg+xml</dc:format>
        <dc:type
           rdf:resource="http://purl.org/dc/dcmitype/StillImage" />
        <dc:title></dc:title>
      </cc:Work>
    </rdf:RDF>
  </metadata>
  <g
     inkscape:label="Layer 1"
     inkscape:groupmode="layer"
     id="layer1"
     transform="translate(-79.797766,-214.69755)">
    <path
       sodipodi:nodetypes="cccccccccc"
       inkscape:connector-curvature="0"
       id="path4144"
       d="m -245.42857,229.50505 -151.71429,109.71429 125.71429,136 108.57142,-134.28572 -148.57142,-2.85714 104.85714,31.42857 -31.42857,34.28572 -73.42857,0 -37.42858,-42.85715 z"
       style="fill:#669900;fill-rule:evenodd;stroke:#000000;stroke-width:1px;stroke-linecap:butt;stroke-linejoin:miter;stroke-opacity:1" />
    <path
       id="path4184"
       d="m -198.23801,662.36212 -2.61913,2.85723 -73.42857,0 -2.60232,-2.97973"
       style="fill:none;fill-rule:evenodd;stroke:#000000;stroke-width:1px;stroke-linecap:butt;stroke-linejoin:miter;stroke-opacity:1"
       inkscape:connector-curvature="0" />
    <path
       sodipodi:nodetypes="scss"
       inkscape:connector-curvature="0"
       id="path4186"
       d="m -287.82081,627.42354 69.5351,75.22438 60.06081,-74.28575 c -15.88754,19.65038 -107.86898,22.56597 -129.59591,-0.93863 z"
       style="fill:#ff6600;fill-rule:evenodd;stroke:#ff6600;stroke-width:1px;stroke-linecap:butt;stroke-linejoin:miter;stroke-opacity:1" />
    <path
       style="fill:#3366cc;fill-rule:evenodd;stroke:#3366cc;stroke-width:1px;stroke-linecap:butt;stroke-linejoin:miter;stroke-opacity:1"
       d="m -279.96282,627.72212 c -5.72492,-6.55526 -5.21468,-6.34591 -0.88148,-11.2997 l 80.30036,-91.80069 c 7.37438,-8.43052 -0.98019,-5.9342 -3.8908,-4.1679 L -322.269,591.96115 c -8.34815,5.06605 -23.94507,8.47518 -12.13994,20.03657 l 102.69466,112.07877 21.13271,-23.7694 c 0,0 2.04711,6.4091 -4.7315,0.87766 z"
       id="path4188"
       inkscape:connector-curvature="0"
       sodipodi:nodetypes="cssssscccc" />
    <path
       style="fill:#003399;fill-rule:evenodd;stroke:#003399;stroke-width:1px;stroke-linecap:butt;stroke-linejoin:miter;stroke-opacity:1"
       d="m -219.47154,502.47656 c -1.53641,0.10796 -3.7557,1.10401 -4.96289,1.97656 l -123.83398,89.50782 c -7.91417,5.72035 -11.35668,7.90339 -0.14063,20.03711 l 114.69531,124.07812 0.0586,-0.084 0.0117,0.0137 104.14062,-130.31836 c 2.49837,-3.12639 2.17469,-5.07081 -2.28516,-5.16211 l -123.96484,-2.53711 c -3.25653,-0.0667 -5.63282,1.03042 -0.26562,2.79492 l 82.60351,27.15625 c 2.71988,0.89418 3.01241,2.6539 0.93164,4.92383 l -64.39258,71.46875 c -1.67827,-1.07847 -3.21105,-2.14569 -4.4375,-3.14648 l -64.65039,-73.46289 c -5.72492,-6.55526 -4.9479,-6.12625 -0.88086,-11.30078 l 86.30079,-109.80079 c 3.8933,-4.95348 3.04765,-6.28333 1.07226,-6.14453 z"
       id="path4190"
       inkscape:connector-curvature="0" />
    <g
       id="g4203"
       transform="matrix(2.2380328,0,0,2.1650114,1014.1827,-952.47911)">
      <path
         id="path4195"
         d="m -259.66658,699.50498 -2.61913,2.85723 -73.42857,0 -2.60232,-2.97973"
         style="fill:none;fill-rule:evenodd;stroke:#000000;stroke-width:1px;stroke-linecap:butt;stroke-linejoin:miter;stroke-opacity:1"
         inkscape:connector-curvature="0" />
      <path
         sodipodi:nodetypes="scss"
         inkscape:connector-curvature="0"
         id="path4197"
         d="m -349.24938,664.5664 69.5351,75.22438 60.06081,-74.28575 c -15.88754,19.65038 -107.86898,22.56597 -129.59591,-0.93863 z"
         style="fill:#ff6600;fill-rule:evenodd;stroke:#ff6600;stroke-width:1px;stroke-linecap:butt;stroke-linejoin:miter;stroke-opacity:1" />
      <path
         style="fill:#3366cc;fill-rule:evenodd;stroke:#3366cc;stroke-width:1px;stroke-linecap:butt;stroke-linejoin:miter;stroke-opacity:1"
         d="m -341.39139,664.86498 c -5.72492,-6.55526 -5.21468,-6.34591 -0.88148,-11.2997 l 80.30036,-91.80069 c 7.37438,-8.43052 -0.98019,-5.9342 -3.8908,-4.1679 l -117.83426,71.50732 c -8.34815,5.06605 -23.94507,8.47518 -12.13994,20.03657 l 102.69466,112.07877 21.13271,-23.7694 c 0,0 2.04711,6.4091 -4.7315,0.87766 z"
         id="path4199"
         inkscape:connector-curvature="0"
         sodipodi:nodetypes="cssssscccc" />
      <path
         inkscape:connector-curvature="0"
         style="fill:#003399;fill-rule:evenodd;stroke:#003399;stroke-width:1px;stroke-linecap:butt;stroke-linejoin:miter;stroke-opacity:1"
         d="m -280.90011,539.61942 c -1.53641,0.10796 -3.7557,1.10401 -4.96289,1.97656 l -123.83398,89.50782 c -7.91417,5.72035 -11.35668,7.90339 -0.14063,20.03711 l 114.69531,124.07812 0.0586,-0.084 0.0117,0.0137 104.14062,-130.31836 c 2.49837,-3.12639 2.17469,-5.07081 -2.28516,-5.16211 l -123.96484,-2.53711 c -3.25653,-0.0667 -5.63282,1.03042 -0.26562,2.79492 l 82.60351,27.15625 c 2.71988,0.89418 3.01241,2.6539 0.93164,4.92383 l -64.39258,71.46875 c -1.67827,-1.07847 -3.21105,-2.14569 -4.4375,-3.14648 l -64.65039,-73.46289 c -5.72492,-6.55526 -4.9479,-6.12625 -0.88086,-11.30078 l 86.30079,-109.80079 c 3.8933,-4.95348 3.04765,-6.28333 1.07226,-6.14453 z"
         id="path4201" />
    </g>
  </g>
</svg>
